<?xml version="1.0" encoding="UTF-8"?>
<svg width="50px" height="50px" viewBox="0 0 50 50" version="1.1" xmlns="http://www.w3.org/2000/svg" xmlns:xlink="http://www.w3.org/1999/xlink">
    <!-- Generator: Sketch 49 (51002) - http://www.bohemiancoding.com/sketch -->
    <title>if_1_Media_social_website_facebook_2657542</title>
    <desc>Created with Sketch.</desc>
    <defs></defs>
    <g id="Page-1" stroke="none" stroke-width="1" fill="none" fill-rule="evenodd">
        <g id="Desktop-HD" transform="translate(-615.000000, -2293.000000)">
            <g id="social-icons" transform="translate(535.000000, 2293.000000)">
                <g id="if_1_Media_social_website_facebook_2657542" transform="translate(80.000000, 0.000000)">
                    <path d="M42.6774414,7.32275391 C38.1508789,2.79580078 31.9074219,0 25,0 C18.0925781,0 11.8494141,2.79580078 7.32285156,7.32275391 C2.79628906,11.849707 0,18.0925781 0,25 C0,31.9074219 2.79628906,38.1504883 7.32285156,42.6771484 C11.8494141,47.2039063 18.0925781,50 25,50 C31.9074219,50 38.1508789,47.2039063 42.6774414,42.6771484 C47.2039063,38.1504883 50,31.9074219 50,25 C50,18.0925781 47.2039063,11.849707 42.6774414,7.32275391 Z" id="Shape" fill="#000000" fill-rule="nonzero"></path>
                    <path d="M26.9100586,19.8917969 L26.9100586,17.8431641 C26.9100586,16.8603516 27.5608398,16.6250977 28.0322266,16.6250977 C28.4887695,16.6250977 30.8972656,16.6250977 30.8972656,16.6250977 L30.8972656,12.2505859 L26.9519531,12.2505859 C22.5639648,12.2505859 21.5813477,15.4896484 21.5813477,17.5939453 L21.5813477,19.8916992 L19.0337891,19.8916992 L19.0337891,22.9786133 L19.0337891,25 L21.6084961,25 C21.6084961,30.8000977 21.6084961,37.7631836 21.6084961,37.7631836 L26.7167969,37.7631836 C26.7167969,37.7631836 26.7167969,30.703125 26.7167969,25 L30.4954102,25 L30.6621094,22.9927734 L30.9667969,19.8917969 L26.9100586,19.8917969 Z" id="Shape" fill="#FFFFFF"></path>
                </g>
            </g>
        </g>
    </g>
</svg>