<?xml version="1.0" encoding="UTF-8"?>
<svg width="50px" height="50px" viewBox="0 0 50 50" version="1.1" xmlns="http://www.w3.org/2000/svg" xmlns:xlink="http://www.w3.org/1999/xlink">
    <!-- Generator: Sketch 49 (51002) - http://www.bohemiancoding.com/sketch -->
    <title>if_2_Media_social_website_instagram_2657553</title>
    <desc>Created with Sketch.</desc>
    <defs></defs>
    <g id="Page-1" stroke="none" stroke-width="1" fill="none" fill-rule="evenodd">
        <g id="Desktop-HD" transform="translate(-775.000000, -2293.000000)">
            <g id="social-icons" transform="translate(535.000000, 2293.000000)">
                <g id="if_2_Media_social_website_instagram_2657553" transform="translate(240.000000, 0.000000)">
                    <path d="M42.6770508,7.32275391 C38.1643555,2.79580078 31.9071289,0 24.9998047,0 C18.1061523,0 11.8499023,2.79580078 7.32304688,7.32275391 C2.79628906,11.849707 0,18.0925781 0,25 C0,31.9074219 2.79628906,38.1504883 7.32304688,42.6771484 C11.8499023,47.2039063 18.1061523,50 24.9998047,50 C31.9071289,50 38.1643555,47.2039063 42.6770508,42.6771484 C47.2040039,38.1504883 50,31.9074219 50,25 C50,18.0925781 47.2040039,11.849707 42.6770508,7.32275391 Z" id="Shape" fill="#000000" fill-rule="nonzero"></path>
                    <path d="M18.6046875,25 C18.6046875,21.4701172 21.4702148,18.5907227 24.9998047,18.5907227 C28.54375,18.5907227 31.4092773,21.4700195 31.4092773,25 C31.4092773,28.543457 28.54375,31.4092773 24.9998047,31.4092773 C21.4701172,31.4092773 18.6046875,28.543457 18.6046875,25 Z M31.6172852,12.4723633 L18.3970703,12.4723633 C15.144043,12.4723633 12.4728516,15.1298828 12.4728516,18.3972656 L12.4728516,31.6170898 C12.4728516,34.8696289 15.1441406,37.5414063 18.3970703,37.5414063 L31.6172852,37.5414063 C34.8841797,37.5414063 37.5416016,34.8696289 37.5416016,31.6170898 L37.5416016,18.3972656 C37.5416016,15.1298828 34.8841797,12.4723633 31.6172852,12.4723633 Z M18.3970703,13.9537109 L31.6172852,13.9537109 C34.0676758,13.9537109 36.0605469,15.946582 36.0605469,18.3972656 L36.0605469,31.6170898 C36.0605469,34.0669922 34.0676758,36.0600586 31.6172852,36.0600586 L18.3970703,36.0600586 C15.9466797,36.0600586 13.9539063,34.0669922 13.9539063,31.6170898 L13.9539063,18.3972656 C13.9539063,15.946582 15.9466797,13.9537109 18.3970703,13.9537109 Z M32.9317383,15.8223633 C32.2119141,15.8223633 31.6311523,16.4036133 31.6311523,17.1232422 C31.6311523,17.8432617 32.2119141,18.4246094 32.9317383,18.4246094 C33.6515625,18.4246094 34.2333008,17.8432617 34.2333008,17.1232422 C34.2333008,16.4036133 33.6515625,15.8223633 32.9317383,15.8223633 Z M33.084082,25 C33.084082,20.5423828 29.471582,16.915918 24.9998047,16.915918 C20.5426758,16.915918 16.9160156,20.5424805 16.9160156,25 C16.9160156,29.4712891 20.5427734,33.0842773 24.9998047,33.0842773 C29.471582,33.0842773 33.084082,29.4712891 33.084082,25 Z" id="Shape" fill="#FFFFFF"></path>
                </g>
            </g>
        </g>
    </g>
</svg>