<?xml version="1.0" encoding="UTF-8"?>
<svg width="50px" height="50px" viewBox="0 0 50 50" version="1.1" xmlns="http://www.w3.org/2000/svg" xmlns:xlink="http://www.w3.org/1999/xlink">
    <!-- Generator: Sketch 49 (51002) - http://www.bohemiancoding.com/sketch -->
    <title>if_18_Media_social_website_in_2657551</title>
    <desc>Created with Sketch.</desc>
    <defs></defs>
    <g id="Page-1" stroke="none" stroke-width="1" fill="none" fill-rule="evenodd">
        <g id="Desktop-HD" transform="translate(-535.000000, -2293.000000)">
            <g id="social-icons" transform="translate(535.000000, 2293.000000)">
                <g id="if_18_Media_social_website_in_2657551">
                    <path d="M42.6775391,7.32275391 C38.1504883,2.79599609 31.9076172,0 25.000293,0 C18.0923828,0 11.8496094,2.79599609 7.32353516,7.32275391 C2.79599609,11.8493164 0,18.0923828 0,24.9998047 C0,31.9074219 2.79599609,38.1504883 7.32353516,42.6767578 C11.8496094,47.2038086 18.0923828,50 25.000293,50 C31.9076172,50 38.1504883,47.2038086 42.6775391,42.6767578 C47.2040039,38.1504883 50,31.9074219 50,24.9998047 C50,18.0923828 47.2040039,11.8493164 42.6775391,7.32275391 Z" id="Shape" fill="#000000" fill-rule="nonzero"></path>
                    <path d="M13.7182617,25.2351563 L13.7182617,36.2816406 L18.978418,36.2816406 L18.978418,24.3353516 L18.978418,21.234668 L13.7182617,21.234668 L13.7182617,25.2351563 Z M36.1576172,25.8581055 C35.8110352,23.0064453 34.5104492,21.234668 30.6618164,21.234668 C28.4052734,21.234668 26.8827148,22.0654297 26.2461914,23.2697266 L26.1766602,23.2697266 L26.1766602,21.234668 L21.9819336,21.234668 L21.9819336,24.1275391 L21.9819336,36.2816406 L26.3704102,36.2816406 L26.3704102,28.8208008 C26.3704102,26.8545898 26.7580078,24.9585938 29.1673828,24.9585938 C31.5892578,24.9585938 31.7686523,27.2008789 31.7686523,28.9587891 L31.7686523,36.2816406 L36.2819336,36.2816406 L36.2819336,28.0175781 C36.2818359,27.2423828 36.2400391,26.5227539 36.1576172,25.8581055 Z M16.3485352,13.7179688 C14.8950195,13.7179688 13.7181641,14.8946289 13.7181641,16.3483398 C13.7181641,17.8020508 14.8950195,18.9785156 16.3485352,18.9785156 C17.8019531,18.9785156 18.978418,17.8020508 18.978418,16.3483398 C18.978418,14.8946289 17.8019531,13.7179688 16.3485352,13.7179688 Z" id="Shape" fill="#FFFFFF"></path>
                </g>
            </g>
        </g>
    </g>
</svg>