<?xml version="1.0" encoding="UTF-8"?>
<svg width="50px" height="50px" viewBox="0 0 50 50" version="1.1" xmlns="http://www.w3.org/2000/svg" xmlns:xlink="http://www.w3.org/1999/xlink">
    <!-- Generator: Sketch 49 (51002) - http://www.bohemiancoding.com/sketch -->
    <title>if_24_Media_social_website_wave_2657558</title>
    <desc>Created with Sketch.</desc>
    <defs></defs>
    <g id="Page-1" stroke="none" stroke-width="1" fill="none" fill-rule="evenodd">
        <g id="Desktop-HD" transform="translate(-855.000000, -2293.000000)" fill-rule="nonzero">
            <g id="social-icons" transform="translate(535.000000, 2293.000000)">
                <g id="if_24_Media_social_website_wave_2657558" transform="translate(320.000000, 0.000000)">
                    <path d="M42.6774414,7.32246094 C38.1503906,2.79697266 31.9075195,0 25.0001953,0 C18.0923828,0 11.8495117,2.79697266 7.3234375,7.32246094 C2.79599609,11.8495117 0,18.1061523 0,24.999707 C0,31.9075195 2.79599609,38.1503906 7.3234375,42.6774414 C11.8495117,47.203418 18.0923828,50 25.0001953,50 C31.9075195,50 38.1503906,47.203418 42.6774414,42.6774414 C47.2039063,38.1503906 50,31.9075195 50,24.999707 C50,18.1061523 47.2039063,11.8495117 42.6774414,7.32246094 Z" id="Shape" fill="#000000"></path>
                    <path d="M24.999707,13.3670898 C18.6006836,13.3670898 13.3626953,18.6036133 13.3626953,25.0041992 C13.3626953,31.4041992 18.6006836,36.6421875 24.999707,36.6421875 C31.4012695,36.6421875 36.6367188,31.4041992 36.6367188,25.0041992 C36.6367188,18.6036133 31.4594727,13.3670898 24.999707,13.3670898 Z M30.3530273,30.1829102 C30.1212891,30.5320312 29.7135742,30.6493164 29.3640625,30.4166992 C26.6286133,28.7280273 23.1952148,28.3785156 19.1232422,29.3092773 C18.7165039,29.4266602 18.3668945,29.1358398 18.2510742,28.7862305 C18.134668,28.3785156 18.4250977,28.0304687 18.7750977,27.9140625 C23.1952148,26.9240234 27.0359375,27.33125 30.0616211,29.1949219 C30.4704102,29.368457 30.5280273,29.8348633 30.3530273,30.1829102 Z M31.7498047,26.9822266 C31.459375,27.3904297 30.9363281,27.5639648 30.5280273,27.2726562 C27.3864258,25.3533203 22.6133789,24.7705078 18.9496094,25.9365234 C18.4836914,26.0524414 17.9611328,25.8186523 17.84375,25.3532227 C17.728418,24.8882812 17.9611328,24.3646484 18.4250977,24.2478516 C22.6725586,22.9679687 27.9089844,23.6079102 31.5161133,25.8186523 C31.8676758,25.9931641 32.0412109,26.5759766 31.7498047,26.9822266 Z M33.3792969,23.4328125 C33.0870117,23.840625 32.3892578,24.0161133 31.8676758,23.7242187 C28.1413086,21.5138672 21.9171875,21.2802734 18.3668945,22.3866211 C17.7861328,22.5611328 17.202832,22.2116211 17.0298828,21.6875 C16.852832,21.10625 17.202832,20.5239258 17.7285156,20.3494141 C21.859082,19.1271484 28.665918,19.3604492 32.9725586,21.9202148 C33.4961914,22.2116211 33.6702148,22.9102539 33.3792969,23.4328125 Z" id="Shape" fill="#FFFFFF"></path>
                </g>
            </g>
        </g>
    </g>
</svg>